<svg id="fd262012-b641-479b-92ae-4194a0d72205" data-name="Layer 1" xmlns="http://www.w3.org/2000/svg" width="240" height="60" viewBox="0 0 240 60"><defs><style>.a4f6642e-25b7-432c-9add-80f9e6a4e0ac{fill:#4d4d4d;}</style></defs><path class="a4f6642e-25b7-432c-9add-80f9e6a4e0ac" d="M225.75,57.06H186.57a5.13,5.13,0,0,1-5.08-5.74l3.35-27.27a5.14,5.14,0,0,1,5.08-4.5H222.4a5.13,5.13,0,0,1,5.08,4.5l3.35,27.27a5.11,5.11,0,0,1-5.08,5.74ZM189.92,23.53a1.14,1.14,0,0,0-1.13,1L185.44,51.8a1.12,1.12,0,0,0,.28.89,1.08,1.08,0,0,0,.85.39h39.18a1.14,1.14,0,0,0,1.13-1.28l-3.35-27.27a1.14,1.14,0,0,0-1.13-1Z"/><path class="a4f6642e-25b7-432c-9add-80f9e6a4e0ac" d="M221.19,18h-4a11.05,11.05,0,0,0-22.1,0h-4a15,15,0,0,1,30.06,0Z"/><path class="a4f6642e-25b7-432c-9add-80f9e6a4e0ac" d="M217.48,48.25a3.68,3.68,0,0,1-2.21-.73L195.11,32.6V48h-4V32.07a3.71,3.71,0,0,1,5.92-3L217.21,44V28.65h4V44.54a3.72,3.72,0,0,1-3.71,3.71Z"/><path class="a4f6642e-25b7-432c-9add-80f9e6a4e0ac" d="M25.49,28.75a2.52,2.52,0,0,0,1.78-4.28A2.52,2.52,0,0,0,23.69,28,2.46,2.46,0,0,0,25.49,28.75Z"/><path class="a4f6642e-25b7-432c-9add-80f9e6a4e0ac" d="M30.52,28.75A2.44,2.44,0,0,0,32.3,28a2.51,2.51,0,0,0-1.78-4.29A2.52,2.52,0,0,0,28.72,28,2.47,2.47,0,0,0,30.52,28.75Z"/><path class="a4f6642e-25b7-432c-9add-80f9e6a4e0ac" d="M48.13,23.74H41.85v5h6.28A1.11,1.11,0,0,1,49.39,30a1.11,1.11,0,0,1-1.26,1.26H40.55a1.26,1.26,0,0,1-.88-.36,1.2,1.2,0,0,1-.38-.9V23.74h-5V30a1.2,1.2,0,0,1-.38.9,1.26,1.26,0,0,1-.88.36H15.45A1.11,1.11,0,0,1,14.19,30a1.11,1.11,0,0,1,1.26-1.25h6.26v-5H15.45A6.11,6.11,0,0,0,11,25.56a6.36,6.36,0,0,0,0,8.91,6.08,6.08,0,0,0,4.47,1.83H33A6.09,6.09,0,0,0,36.78,35a6.25,6.25,0,0,0,3.77,1.27h7.58A6.22,6.22,0,0,0,54.39,30a6.2,6.2,0,0,0-6.26-6.26Z"/><rect class="a4f6642e-25b7-432c-9add-80f9e6a4e0ac" x="41.85" y="16.2" width="12.54" height="5.03"/><path class="a4f6642e-25b7-432c-9add-80f9e6a4e0ac" d="M56.92,37.51a1.12,1.12,0,0,1-1.27,1.26v5A6.22,6.22,0,0,0,62,37.51V23.74h-5Z"/><path class="a4f6642e-25b7-432c-9add-80f9e6a4e0ac" d="M78.21,23.74A6.21,6.21,0,0,0,71.93,30v1.26H70.67A1.12,1.12,0,0,1,69.4,30V16.2h-5V30a6.23,6.23,0,0,0,6.3,6.3h1.26v1.21A6.11,6.11,0,0,0,73.75,42a6.27,6.27,0,0,0,10.72-4.47V30a6.2,6.2,0,0,0-6.26-6.26Zm1.26,13.77a1.26,1.26,0,1,1-2.51,0V30a1.26,1.26,0,0,1,2.51,0Z"/><path class="a4f6642e-25b7-432c-9add-80f9e6a4e0ac" d="M112.17,28.75a2.51,2.51,0,0,0,1.77-4.28A2.52,2.52,0,0,0,110.37,28,2.44,2.44,0,0,0,112.17,28.75Z"/><path class="a4f6642e-25b7-432c-9add-80f9e6a4e0ac" d="M117.2,28.75A2.51,2.51,0,0,0,119,24.47a2.41,2.41,0,0,0-1.78-.73A2.52,2.52,0,0,0,115.4,28,2.47,2.47,0,0,0,117.2,28.75Z"/><rect class="a4f6642e-25b7-432c-9add-80f9e6a4e0ac" x="151.1" y="16.2" width="12.54" height="5.03"/><path class="a4f6642e-25b7-432c-9add-80f9e6a4e0ac" d="M168.68,21.23a2.49,2.49,0,0,0,2.52-2.53,2.38,2.38,0,0,0-.73-1.77,2.55,2.55,0,0,0-3.57,0,2.38,2.38,0,0,0-.73,1.77,2.43,2.43,0,0,0,.73,1.8A2.4,2.4,0,0,0,168.68,21.23Z"/><path class="a4f6642e-25b7-432c-9add-80f9e6a4e0ac" d="M166.17,30a1.11,1.11,0,0,1-1.26,1.26,1.22,1.22,0,0,1-.88-.36,1.17,1.17,0,0,1-.39-.9,6.2,6.2,0,0,0-6.26-6.26H151.1v5h6.28A1.11,1.11,0,0,1,158.64,30a1.11,1.11,0,0,1-1.26,1.26h-7.49a1.26,1.26,0,0,1-.88-.36,1.2,1.2,0,0,1-.38-.9V23.74h-5V30a1.12,1.12,0,0,1-1.27,1.26,1.26,1.26,0,0,1-.88-.36,1.2,1.2,0,0,1-.38-.9V23.74h-5V30a1.2,1.2,0,0,1-.38.9,1.26,1.26,0,0,1-.88.36A1.25,1.25,0,0,1,133.56,30V23.74h-5V30a1.2,1.2,0,0,1-.38.9,1.26,1.26,0,0,1-.88.36h0a1.26,1.26,0,0,1-.88-.36A1.2,1.2,0,0,1,126,30V23.74h-5V30a1.2,1.2,0,0,1-.38.9,1.26,1.26,0,0,1-.88.36H102.13A1.11,1.11,0,0,1,100.87,30a1.11,1.11,0,0,1,1.26-1.25h6.26v-5h-6.26A6.21,6.21,0,0,0,95.84,30a6.23,6.23,0,0,0,6.29,6.3h17.58A6.09,6.09,0,0,0,123.46,35a6.25,6.25,0,0,0,3.77,1.27h0A6.21,6.21,0,0,0,131,35a6.21,6.21,0,0,0,3.77,1.27A6.07,6.07,0,0,0,138.56,35a6.32,6.32,0,0,0,3.77,1.27A6.12,6.12,0,0,0,146.1,35a6.29,6.29,0,0,0,3.74,1.26h7.54A6,6,0,0,0,161.13,35a6.34,6.34,0,0,0,3.78,1.27h0A6.23,6.23,0,0,0,171.2,30V23.74h-5Z"/></svg>