<svg id="bbb6c5be-61a4-4978-bf1d-bf3300a4aad6" data-name="Layer 1" xmlns="http://www.w3.org/2000/svg" width="240" height="60" viewBox="0 0 240 60"><defs><style>.fc9274b1-25be-48d1-b128-72f3bf2744af{fill:#4d4d4d;}</style></defs><path class="fc9274b1-25be-48d1-b128-72f3bf2744af" d="M225.75,57.06H186.57a5.13,5.13,0,0,1-5.08-5.74l3.35-27.27a5.14,5.14,0,0,1,5.08-4.5H222.4a5.13,5.13,0,0,1,5.08,4.5l3.35,27.27a5.11,5.11,0,0,1-5.08,5.74ZM189.92,23.53a1.14,1.14,0,0,0-1.13,1L185.44,51.8a1.12,1.12,0,0,0,.28.89,1.08,1.08,0,0,0,.85.39h39.18a1.14,1.14,0,0,0,1.13-1.28l-3.35-27.27a1.14,1.14,0,0,0-1.13-1Z"/><path class="fc9274b1-25be-48d1-b128-72f3bf2744af" d="M221.19,18h-4a11.05,11.05,0,0,0-22.1,0h-4a15,15,0,0,1,30.06,0Z"/><path class="fc9274b1-25be-48d1-b128-72f3bf2744af" d="M217.48,48.25a3.68,3.68,0,0,1-2.21-.73L195.11,32.6V48h-4V32.07a3.71,3.71,0,0,1,5.92-3L217.21,44V28.65h4V44.54a3.72,3.72,0,0,1-3.71,3.71Z"/><path class="fc9274b1-25be-48d1-b128-72f3bf2744af" d="M21,32.68a2.6,2.6,0,0,0,1.89-.77A2.58,2.58,0,0,0,23.67,30a2.67,2.67,0,1,0-5.33,0,2.58,2.58,0,0,0,.77,1.87A2.61,2.61,0,0,0,21,32.68Z"/><path class="fc9274b1-25be-48d1-b128-72f3bf2744af" d="M26.34,32.68a2.6,2.6,0,0,0,1.89-.77A2.58,2.58,0,0,0,29,30a2.67,2.67,0,1,0-5.33,0,2.58,2.58,0,0,0,.77,1.87A2.61,2.61,0,0,0,26.34,32.68Z"/><path class="fc9274b1-25be-48d1-b128-72f3bf2744af" d="M45,27.37H38.34v5.31H45a1.33,1.33,0,1,1,0,2.66H37A1.31,1.31,0,0,1,36,35a1.25,1.25,0,0,1-.4-1V27.37H30.34V34a1.26,1.26,0,0,1-.41,1,1.3,1.3,0,0,1-.93.39H10.39a1.33,1.33,0,1,1,0-2.66H17V27.37H10.39A6.44,6.44,0,0,0,5.65,29.3a6.74,6.74,0,0,0,0,9.44,6.48,6.48,0,0,0,4.74,1.93H29a6.47,6.47,0,0,0,4-1.34,6.68,6.68,0,0,0,4,1.34h8A6.57,6.57,0,0,0,51.62,34,6.57,6.57,0,0,0,45,27.37Z"/><rect class="fc9274b1-25be-48d1-b128-72f3bf2744af" x="38.34" y="19.38" width="13.28" height="5.33"/><path class="fc9274b1-25be-48d1-b128-72f3bf2744af" d="M54.29,42A1.18,1.18,0,0,1,53,43.28v5.34A6.61,6.61,0,0,0,59.62,42V27.37H54.29Z"/><path class="fc9274b1-25be-48d1-b128-72f3bf2744af" d="M76.84,27.37A6.59,6.59,0,0,0,70.19,34v1.34H68.85A1.19,1.19,0,0,1,67.51,34V19.38H62.18V34a6.59,6.59,0,0,0,6.67,6.67h1.34V42a6.64,6.64,0,1,0,13.28,0V34a6.57,6.57,0,0,0-6.63-6.63ZM78.17,42a1.33,1.33,0,1,1-2.65,0V34a1.33,1.33,0,0,1,2.65,0Z"/><path class="fc9274b1-25be-48d1-b128-72f3bf2744af" d="M112.79,32.68a2.57,2.57,0,0,0,1.88-.77,2.54,2.54,0,0,0,.77-1.87,2.66,2.66,0,1,0-5.32,0,2.54,2.54,0,0,0,.77,1.87A2.59,2.59,0,0,0,112.79,32.68Z"/><path class="fc9274b1-25be-48d1-b128-72f3bf2744af" d="M118.12,32.68a2.66,2.66,0,1,0,0-5.31A2.65,2.65,0,0,0,115.44,30a2.55,2.55,0,0,0,.78,1.87A2.59,2.59,0,0,0,118.12,32.68Z"/><rect class="fc9274b1-25be-48d1-b128-72f3bf2744af" x="154.02" y="19.38" width="13.28" height="5.33"/><path class="fc9274b1-25be-48d1-b128-72f3bf2744af" d="M172.62,24.71a2.67,2.67,0,1,0,0-5.33,2.54,2.54,0,0,0-1.88.78A2.57,2.57,0,0,0,170,22a2.59,2.59,0,0,0,.77,1.9A2.53,2.53,0,0,0,172.62,24.71Z"/><path class="fc9274b1-25be-48d1-b128-72f3bf2744af" d="M170,34a1.19,1.19,0,0,1-1.34,1.34,1.3,1.3,0,0,1-.93-.39,1.26,1.26,0,0,1-.41-1,6.57,6.57,0,0,0-6.63-6.63H154v5.31h6.64a1.33,1.33,0,1,1,0,2.66h-7.92a1.31,1.31,0,0,1-.94-.39,1.25,1.25,0,0,1-.4-1V27.37h-5.33V34a1.19,1.19,0,0,1-1.34,1.34,1.3,1.3,0,0,1-.93-.39,1.26,1.26,0,0,1-.41-1V27.37H138.1V34a1.25,1.25,0,0,1-.4,1,1.31,1.31,0,0,1-.94.39A1.31,1.31,0,0,1,135.45,34V27.37h-5.33V34a1.26,1.26,0,0,1-.41,1,1.3,1.3,0,0,1-.93.39h0a1.3,1.3,0,0,1-.93-.39,1.26,1.26,0,0,1-.41-1V27.37h-5.29V34a1.25,1.25,0,0,1-.4,1,1.3,1.3,0,0,1-.93.39H102.17a1.33,1.33,0,1,1,0-2.66h6.63V27.37h-6.63a6.68,6.68,0,0,0-4.74,11.37,6.48,6.48,0,0,0,4.74,1.93h18.61a6.49,6.49,0,0,0,4-1.34,6.68,6.68,0,0,0,4,1.34h0a6.63,6.63,0,0,0,4-1.34,6.63,6.63,0,0,0,4,1.34,6.5,6.5,0,0,0,4-1.34,6.72,6.72,0,0,0,4,1.34,6.55,6.55,0,0,0,4-1.34,6.65,6.65,0,0,0,4,1.33h8a6.5,6.5,0,0,0,4-1.34,6.72,6.72,0,0,0,4,1.34h0A6.59,6.59,0,0,0,175.3,34V27.37H170Z"/></svg>